<svg width="343" height="192" viewBox="0 0 343 192" fill="none" xmlns="http://www.w3.org/2000/svg">
<path d="M26.2227 145.207C28.2292 145.447 29.9661 145.626 31.4336 145.746C32.901 145.836 34.1139 145.911 35.0723 145.971C36.1803 146.031 37.1087 146.046 37.8574 146.016C38.6361 145.986 39.6992 145.911 41.0469 145.791C42.1849 145.701 43.6823 145.581 45.5391 145.432C47.3958 145.252 49.7168 145.012 52.502 144.713C52.5319 145.402 52.5469 146.076 52.5469 146.734C52.5768 147.363 52.6068 147.917 52.6367 148.396C52.6667 148.965 52.6816 149.49 52.6816 149.969C52.6816 150.478 52.6517 151.122 52.5918 151.9C52.5319 152.559 52.4271 153.398 52.2773 154.416C52.1576 155.404 51.9629 156.587 51.6934 157.965C51.2741 156.348 50.8698 155.045 50.4805 154.057C50.0911 153.038 49.7318 152.23 49.4023 151.631C49.043 150.942 48.6836 150.418 48.3242 150.059C47.9349 149.789 47.4707 149.564 46.9316 149.385C46.4525 149.235 45.8385 149.115 45.0898 149.025C44.3711 148.936 43.5176 148.951 42.5293 149.07C42.3796 153.023 42.2747 156.228 42.2148 158.684C42.1549 161.139 42.11 163.056 42.0801 164.434C42.0501 166.081 42.0352 167.264 42.0352 167.982C42.0651 169.001 42.2298 170.004 42.5293 170.992C42.7689 171.831 43.1582 172.699 43.6973 173.598C44.2363 174.496 45.015 175.29 46.0332 175.979H40.5527C40.0436 175.979 39.4147 176.008 38.666 176.068C38.0371 176.128 37.2285 176.188 36.2402 176.248C35.2819 176.308 34.1589 176.413 32.8711 176.562C33.3203 175.784 33.6797 175.08 33.9492 174.451C34.2188 173.822 34.4284 173.283 34.5781 172.834C34.7578 172.295 34.8926 171.816 34.9824 171.396C35.0124 170.798 35.0872 169.585 35.207 167.758C35.237 167.009 35.2669 166.081 35.2969 164.973C35.3568 163.865 35.4167 162.547 35.4766 161.02C35.5664 159.492 35.6413 157.74 35.7012 155.764C35.791 153.757 35.8809 151.496 35.9707 148.98C35.4316 148.831 34.9225 148.846 34.4434 149.025C33.9642 149.175 33.5449 149.37 33.1855 149.609C32.7663 149.909 32.362 150.268 31.9727 150.688C31.5833 151.197 31.1491 151.855 30.6699 152.664C30.2507 153.353 29.7715 154.266 29.2324 155.404C28.6934 156.512 28.0794 157.89 27.3906 159.537C27.2409 157.8 27.1361 156.378 27.0762 155.27C27.0163 154.132 26.9714 153.248 26.9414 152.619C26.9115 151.87 26.8965 151.316 26.8965 150.957C26.8965 150.628 26.8665 150.193 26.8066 149.654C26.7467 149.205 26.6719 148.621 26.582 147.902C26.4922 147.154 26.3724 146.255 26.2227 145.207ZM61.8457 170.768C62.6842 170.768 63.4629 170.678 64.1816 170.498C64.7806 170.348 65.3496 170.109 65.8887 169.779C66.4577 169.42 66.832 168.896 67.0117 168.207C67.6107 168.327 68.1198 168.432 68.5391 168.521C68.9583 168.581 69.3177 168.641 69.6172 168.701C69.9466 168.791 70.2311 168.851 70.4707 168.881C70.7103 168.941 70.9948 169.001 71.3242 169.061C71.6237 169.12 71.9831 169.195 72.4023 169.285C72.8516 169.345 73.3757 169.435 73.9746 169.555C73.5254 169.495 73.0612 169.54 72.582 169.689C72.1328 169.839 71.6986 170.004 71.2793 170.184C70.8001 170.393 70.3509 170.648 69.9316 170.947C69.6621 171.127 69.3477 171.396 68.9883 171.756C68.6589 172.115 68.1797 172.46 67.5508 172.789C66.9219 173.118 66.0833 173.403 65.0352 173.643C64.0169 173.852 62.6992 173.927 61.082 173.867C59.1354 173.807 57.5033 173.463 56.1855 172.834C54.8678 172.175 53.8047 171.382 52.9961 170.453C52.1875 169.495 51.6035 168.462 51.2441 167.354C50.8848 166.245 50.6901 165.212 50.6602 164.254C50.6302 163.296 50.9147 162.292 51.5137 161.244C52.1126 160.196 52.9512 159.238 54.0293 158.369C55.1374 157.501 56.4701 156.797 58.0273 156.258C59.5846 155.689 61.2917 155.404 63.1484 155.404C64.2266 155.404 65.2148 155.539 66.1133 155.809C67.0417 156.048 67.8802 156.378 68.6289 156.797C69.4076 157.216 70.0814 157.695 70.6504 158.234C71.2194 158.743 71.6986 159.268 72.0879 159.807C72.4772 160.376 72.8066 160.975 73.0762 161.604C73.3158 162.143 73.5104 162.757 73.6602 163.445C73.8099 164.134 73.8548 164.838 73.7949 165.557C71.5189 165.617 69.6771 165.661 68.2695 165.691C66.8919 165.721 65.8138 165.736 65.0352 165.736H63.0137H61.4863C60.9473 165.736 60.2435 165.751 59.375 165.781C58.5065 165.811 57.4434 165.856 56.1855 165.916C56.3353 167.114 56.7096 168.042 57.3086 168.701C57.9375 169.33 58.5964 169.809 59.2852 170.139C60.0638 170.498 60.9173 170.708 61.8457 170.768ZM57.8027 162.682C58.7611 162.742 59.5547 162.786 60.1836 162.816C60.8424 162.846 61.3815 162.876 61.8008 162.906C62.25 162.936 62.6094 162.951 62.8789 162.951H64.002C64.7507 162.951 66.1432 162.906 68.1797 162.816C68.0898 161.499 67.8053 160.495 67.3262 159.807C66.877 159.118 66.3978 158.609 65.8887 158.279C65.2897 157.92 64.6309 157.71 63.9121 157.65C61.9655 157.68 60.513 158.085 59.5547 158.863C58.6263 159.642 58.0423 160.915 57.8027 162.682ZM78.9609 159.807C79.1107 159.627 79.2005 159.298 79.2305 158.818C79.2904 158.309 79.4102 157.74 79.5898 157.111C79.7995 156.482 80.1439 155.824 80.623 155.135C81.1022 154.446 81.8809 153.802 82.959 153.203C84.0072 152.604 85.0254 152.245 86.0137 152.125C87.002 152.005 87.9453 152.05 88.8438 152.26C89.7422 152.469 90.5807 152.799 91.3594 153.248C92.168 153.697 92.9017 154.191 93.5605 154.73C94.0098 155.09 94.3691 155.614 94.6387 156.303C94.9082 156.962 95.1178 157.71 95.2676 158.549C95.4173 159.387 95.5221 160.271 95.582 161.199C95.6719 162.098 95.7318 162.981 95.7617 163.85C95.7917 164.688 95.8066 165.467 95.8066 166.186C95.8366 166.874 95.8965 167.443 95.9863 167.893C96.1061 168.551 96.3158 169.12 96.6152 169.6C96.9147 170.049 97.2441 170.438 97.6035 170.768C97.9629 171.067 98.3223 171.307 98.6816 171.486C99.041 171.666 99.3555 171.801 99.625 171.891C99.8047 171.98 99.9694 172.04 100.119 172.07C100.419 172.19 100.628 172.19 100.748 172.07C100.568 172.49 100.404 172.849 100.254 173.148C100.104 173.448 99.9844 173.702 99.8945 173.912C99.7747 174.152 99.6699 174.346 99.5801 174.496C99.4902 174.676 99.3854 174.84 99.2656 174.99C99.1758 175.14 99.056 175.305 98.9062 175.484C98.7565 175.664 98.6068 175.859 98.457 176.068C98.0677 175.919 97.6934 175.739 97.334 175.529C97.0046 175.32 96.7051 175.125 96.4355 174.945C96.1061 174.736 95.8066 174.526 95.5371 174.316C95.2676 174.107 95.013 173.867 94.7734 173.598C94.5638 173.358 94.3392 173.104 94.0996 172.834C93.89 172.564 93.7103 172.265 93.5605 171.936C93.3809 172.325 92.9466 172.879 92.2578 173.598C91.599 174.316 90.7305 174.975 89.6523 175.574C88.5742 176.143 87.3164 176.548 85.8789 176.787C84.4714 177.027 82.9141 176.862 81.207 176.293C80.4583 176.053 79.7546 175.709 79.0957 175.26C78.4368 174.781 77.8678 174.212 77.3887 173.553C76.9395 172.894 76.61 172.145 76.4004 171.307C76.2207 170.438 76.2357 169.48 76.4453 168.432C76.6549 167.383 77.0293 166.5 77.5684 165.781C78.1074 165.062 78.7513 164.479 79.5 164.029C80.2487 163.58 81.0872 163.236 82.0156 162.996C82.944 162.757 83.9023 162.592 84.8906 162.502C85.6693 162.472 86.4479 162.517 87.2266 162.637C87.8854 162.757 88.5742 162.981 89.293 163.311C90.0117 163.61 90.6257 164.074 91.1348 164.703C91.1048 163.116 91.0449 161.858 90.9551 160.93C90.8952 159.971 90.8353 159.238 90.7754 158.729C90.6556 158.13 90.5508 157.71 90.4609 157.471C90.3112 157.261 90.1465 157.021 89.9668 156.752C89.8171 156.482 89.6224 156.243 89.3828 156.033C89.1432 155.794 88.8438 155.599 88.4844 155.449C88.125 155.299 87.7057 155.24 87.2266 155.27C86.7174 155.299 86.3132 155.434 86.0137 155.674C85.7142 155.913 85.4746 156.198 85.2949 156.527C85.1452 156.827 85.0553 157.156 85.0254 157.516C84.9954 157.875 85.0104 158.189 85.0703 158.459C85.1302 158.639 85.2201 158.833 85.3398 159.043C85.4596 159.223 85.6243 159.417 85.834 159.627C86.0436 159.837 86.3281 160.016 86.6875 160.166C85.9987 160.256 85.3848 160.331 84.8457 160.391C84.3066 160.421 83.8424 160.465 83.4531 160.525C83.0039 160.585 82.6146 160.63 82.2852 160.66C81.9557 160.69 81.5664 160.75 81.1172 160.84C80.7279 160.9 80.2487 160.975 79.6797 161.064C79.1107 161.154 78.4518 161.274 77.7031 161.424C77.8828 161.214 78.0475 161.02 78.1973 160.84C78.347 160.63 78.4818 160.451 78.6016 160.301C78.7214 160.121 78.8411 159.956 78.9609 159.807ZM85.6992 165.152C85.1602 165.182 84.6211 165.317 84.082 165.557C83.543 165.766 83.0638 166.081 82.6445 166.5C82.2253 166.889 81.8659 167.354 81.5664 167.893C81.2969 168.402 81.1621 168.971 81.1621 169.6C81.1621 170.229 81.3118 170.783 81.6113 171.262C81.9408 171.711 82.36 172.085 82.8691 172.385C83.4082 172.684 83.9772 172.864 84.5762 172.924C85.2051 172.984 85.819 172.924 86.418 172.744C86.987 172.535 87.526 172.205 88.0352 171.756C88.5443 171.277 88.9785 170.768 89.3379 170.229C89.6973 169.66 89.9518 169.105 90.1016 168.566C90.2513 167.997 90.2663 167.533 90.1465 167.174C89.9069 166.395 89.3678 165.856 88.5293 165.557C87.6908 165.227 86.7474 165.092 85.6992 165.152ZM100.074 156.707C100.763 156.647 101.347 156.587 101.826 156.527C102.335 156.467 102.755 156.408 103.084 156.348C103.473 156.288 103.803 156.228 104.072 156.168C104.342 156.138 104.641 156.078 104.971 155.988C105.27 155.928 105.6 155.854 105.959 155.764C106.348 155.644 106.768 155.509 107.217 155.359L106.947 161.064C107.606 160.016 108.37 159.223 109.238 158.684C110.107 158.115 110.93 157.695 111.709 157.426C112.637 157.096 113.566 156.902 114.494 156.842C115.452 156.872 116.336 157.021 117.145 157.291C117.833 157.531 118.522 157.905 119.211 158.414C119.93 158.923 120.484 159.672 120.873 160.66C121.891 159.612 122.895 158.803 123.883 158.234C124.901 157.635 125.799 157.186 126.578 156.887C127.507 156.557 128.375 156.363 129.184 156.303C130.262 156.273 131.25 156.452 132.148 156.842C133.077 157.231 133.885 157.725 134.574 158.324C135.263 158.893 135.817 159.507 136.236 160.166C136.656 160.795 136.895 161.349 136.955 161.828C137.045 162.487 137 163.34 136.82 164.389C136.641 165.407 136.431 166.455 136.191 167.533C135.952 168.581 135.727 169.555 135.518 170.453C135.338 171.322 135.263 171.936 135.293 172.295C135.383 172.594 135.592 172.954 135.922 173.373C136.221 173.732 136.656 174.182 137.225 174.721C137.824 175.23 138.677 175.829 139.785 176.518C138.827 176.488 137.973 176.458 137.225 176.428C136.506 176.398 135.892 176.353 135.383 176.293C134.784 176.233 134.26 176.188 133.811 176.158C133.451 176.158 133.017 176.128 132.508 176.068C132.089 176.038 131.535 175.993 130.846 175.934C130.187 175.874 129.423 175.814 128.555 175.754C128.884 175.664 129.154 175.499 129.363 175.26C129.573 174.99 129.753 174.736 129.902 174.496C130.052 174.197 130.172 173.867 130.262 173.508C130.322 173.208 130.382 172.729 130.441 172.07C130.501 171.411 130.546 170.663 130.576 169.824C130.636 168.986 130.666 168.102 130.666 167.174C130.696 166.245 130.696 165.362 130.666 164.523C130.636 163.685 130.576 162.921 130.486 162.232C130.396 161.544 130.277 161.02 130.127 160.66C130.007 160.391 129.798 160.181 129.498 160.031C129.199 159.852 128.854 159.747 128.465 159.717C128.076 159.657 127.686 159.672 127.297 159.762C126.908 159.822 126.563 159.941 126.264 160.121C125.994 160.331 125.635 160.615 125.186 160.975C124.796 161.304 124.287 161.753 123.658 162.322C123.029 162.891 122.236 163.61 121.277 164.479C121.188 166.365 121.113 167.893 121.053 169.061C121.023 170.199 120.993 171.067 120.963 171.666C120.933 172.385 120.918 172.879 120.918 173.148C120.888 173.388 120.903 173.613 120.963 173.822C121.023 174.271 121.202 174.691 121.502 175.08C121.143 174.99 120.753 174.93 120.334 174.9C119.945 174.87 119.585 174.84 119.256 174.811C118.867 174.781 118.477 174.766 118.088 174.766C117.758 174.766 117.399 174.781 117.01 174.811C116.68 174.84 116.276 174.885 115.797 174.945C115.318 174.975 114.794 175.02 114.225 175.08C114.464 174.93 114.659 174.751 114.809 174.541C114.958 174.331 115.078 174.137 115.168 173.957C115.288 173.747 115.378 173.553 115.438 173.373C115.467 173.193 115.527 172.759 115.617 172.07C115.707 171.352 115.767 170.513 115.797 169.555C115.827 168.596 115.827 167.593 115.797 166.545C115.767 165.467 115.662 164.493 115.482 163.625C115.303 162.727 115.018 161.993 114.629 161.424C114.27 160.855 113.79 160.6 113.191 160.66C112.473 160.72 111.739 160.9 110.99 161.199C110.361 161.439 109.688 161.798 108.969 162.277C108.25 162.757 107.576 163.4 106.947 164.209C106.827 166.455 106.753 168.237 106.723 169.555C106.723 170.872 106.738 171.876 106.768 172.564C106.798 173.373 106.827 173.927 106.857 174.227C106.887 174.436 106.962 174.646 107.082 174.855C107.172 175.035 107.277 175.245 107.396 175.484C107.546 175.724 107.711 175.949 107.891 176.158L100.748 175.799C100.988 175.679 101.197 175.529 101.377 175.35C101.557 175.14 101.706 174.93 101.826 174.721C101.946 174.481 102.066 174.242 102.186 174.002C102.275 173.792 102.35 173.298 102.41 172.52C102.5 171.741 102.575 170.827 102.635 169.779C102.695 168.701 102.74 167.578 102.77 166.41C102.829 165.212 102.859 164.104 102.859 163.086C102.889 162.038 102.904 161.154 102.904 160.436C102.904 159.687 102.889 159.238 102.859 159.088C102.77 158.788 102.605 158.474 102.365 158.145C102.156 157.905 101.871 157.65 101.512 157.381C101.152 157.081 100.673 156.857 100.074 156.707ZM140.01 161.514C141.178 161.544 142.241 161.559 143.199 161.559C144.188 161.559 145.041 161.559 145.76 161.559C146.598 161.559 147.362 161.544 148.051 161.514C148.77 161.514 149.683 161.484 150.791 161.424C151.749 161.394 152.947 161.349 154.385 161.289C155.852 161.229 157.634 161.154 159.73 161.064L159.506 165.646C157.829 165.527 156.421 165.452 155.283 165.422C154.175 165.362 153.277 165.317 152.588 165.287C151.779 165.257 151.12 165.257 150.611 165.287C150.102 165.317 149.383 165.362 148.455 165.422C147.676 165.482 146.613 165.557 145.266 165.646C143.948 165.706 142.271 165.811 140.234 165.961L140.01 161.514ZM161.303 145.432C162.171 145.581 162.935 145.686 163.594 145.746C164.283 145.806 164.852 145.851 165.301 145.881C165.84 145.911 166.304 145.926 166.693 145.926C167.083 145.926 167.637 145.896 168.355 145.836C168.954 145.776 169.733 145.701 170.691 145.611C171.68 145.521 172.893 145.372 174.33 145.162C173.911 145.282 173.521 145.626 173.162 146.195C172.833 146.734 172.533 147.318 172.264 147.947C171.934 148.696 171.65 149.52 171.41 150.418C171.201 151.227 170.931 152.335 170.602 153.742C170.302 155.15 170.003 156.677 169.703 158.324C169.434 159.971 169.224 161.648 169.074 163.355C168.924 165.033 168.895 166.575 168.984 167.982C169.104 169.39 169.389 170.558 169.838 171.486C170.287 172.385 170.976 172.864 171.904 172.924C173.312 173.044 174.48 173.059 175.408 172.969C176.367 172.849 177.145 172.684 177.744 172.475C178.343 172.265 178.807 172.025 179.137 171.756C179.466 171.456 179.721 171.172 179.9 170.902C180.38 170.214 180.874 169.33 181.383 168.252C181.892 167.174 182.341 166.141 182.73 165.152C183.15 164.164 183.494 163.326 183.764 162.637C184.033 161.948 184.168 161.618 184.168 161.648C184.168 161.708 184.153 162.053 184.123 162.682C184.123 163.281 184.108 164.014 184.078 164.883C184.078 165.721 184.063 166.605 184.033 167.533C184.033 168.462 184.018 169.255 183.988 169.914C183.958 170.453 183.928 171.052 183.898 171.711C183.868 172.28 183.839 172.954 183.809 173.732C183.809 174.511 183.779 175.365 183.719 176.293C182.461 176.203 181.263 176.143 180.125 176.113C178.987 176.083 177.984 176.068 177.115 176.068C176.097 176.068 175.154 176.083 174.285 176.113C173.357 176.143 172.279 176.188 171.051 176.248C170.003 176.308 168.7 176.383 167.143 176.473C165.585 176.533 163.788 176.622 161.752 176.742C161.992 176.323 162.186 175.934 162.336 175.574C162.516 175.215 162.65 174.915 162.74 174.676C162.86 174.376 162.935 174.122 162.965 173.912C163.145 172.954 163.294 171.741 163.414 170.273C163.534 168.776 163.624 167.189 163.684 165.512C163.773 163.835 163.818 162.128 163.818 160.391C163.848 158.624 163.848 156.992 163.818 155.494C163.788 153.997 163.729 152.694 163.639 151.586C163.579 150.478 163.489 149.714 163.369 149.295C163.219 148.816 163.04 148.337 162.83 147.857C162.65 147.438 162.426 147.019 162.156 146.6C161.917 146.15 161.632 145.761 161.303 145.432ZM198.363 170.768C199.202 170.768 199.98 170.678 200.699 170.498C201.298 170.348 201.867 170.109 202.406 169.779C202.975 169.42 203.35 168.896 203.529 168.207C204.128 168.327 204.637 168.432 205.057 168.521C205.476 168.581 205.835 168.641 206.135 168.701C206.464 168.791 206.749 168.851 206.988 168.881C207.228 168.941 207.512 169.001 207.842 169.061C208.141 169.12 208.501 169.195 208.92 169.285C209.369 169.345 209.893 169.435 210.492 169.555C210.043 169.495 209.579 169.54 209.1 169.689C208.65 169.839 208.216 170.004 207.797 170.184C207.318 170.393 206.868 170.648 206.449 170.947C206.18 171.127 205.865 171.396 205.506 171.756C205.176 172.115 204.697 172.46 204.068 172.789C203.439 173.118 202.601 173.403 201.553 173.643C200.535 173.852 199.217 173.927 197.6 173.867C195.653 173.807 194.021 173.463 192.703 172.834C191.385 172.175 190.322 171.382 189.514 170.453C188.705 169.495 188.121 168.462 187.762 167.354C187.402 166.245 187.208 165.212 187.178 164.254C187.148 163.296 187.432 162.292 188.031 161.244C188.63 160.196 189.469 159.238 190.547 158.369C191.655 157.501 192.988 156.797 194.545 156.258C196.102 155.689 197.809 155.404 199.666 155.404C200.744 155.404 201.732 155.539 202.631 155.809C203.559 156.048 204.398 156.378 205.146 156.797C205.925 157.216 206.599 157.695 207.168 158.234C207.737 158.743 208.216 159.268 208.605 159.807C208.995 160.376 209.324 160.975 209.594 161.604C209.833 162.143 210.028 162.757 210.178 163.445C210.327 164.134 210.372 164.838 210.312 165.557C208.036 165.617 206.195 165.661 204.787 165.691C203.41 165.721 202.331 165.736 201.553 165.736H199.531H198.004C197.465 165.736 196.761 165.751 195.893 165.781C195.024 165.811 193.961 165.856 192.703 165.916C192.853 167.114 193.227 168.042 193.826 168.701C194.455 169.33 195.114 169.809 195.803 170.139C196.581 170.498 197.435 170.708 198.363 170.768ZM194.32 162.682C195.279 162.742 196.072 162.786 196.701 162.816C197.36 162.846 197.899 162.876 198.318 162.906C198.768 162.936 199.127 162.951 199.396 162.951H200.52C201.268 162.951 202.661 162.906 204.697 162.816C204.607 161.499 204.323 160.495 203.844 159.807C203.395 159.118 202.915 158.609 202.406 158.279C201.807 157.92 201.148 157.71 200.43 157.65C198.483 157.68 197.031 158.085 196.072 158.863C195.144 159.642 194.56 160.915 194.32 162.682ZM233.312 158.953C233.223 158.354 233.148 157.86 233.088 157.471C233.028 157.051 232.968 156.722 232.908 156.482C232.848 156.183 232.803 155.958 232.773 155.809C232.714 155.659 232.639 155.494 232.549 155.314C232.489 155.165 232.384 154.985 232.234 154.775C232.115 154.566 231.965 154.326 231.785 154.057C232.174 154.176 232.564 154.251 232.953 154.281C233.372 154.311 233.762 154.341 234.121 154.371C234.51 154.401 234.915 154.401 235.334 154.371C235.753 154.371 236.232 154.356 236.771 154.326C237.251 154.296 237.82 154.281 238.479 154.281C239.167 154.251 239.946 154.206 240.814 154.146C240.305 154.266 239.871 154.476 239.512 154.775C239.182 155.045 238.898 155.344 238.658 155.674C238.389 156.033 238.164 156.423 237.984 156.842C237.835 157.231 237.745 157.98 237.715 159.088C237.685 160.166 237.685 161.454 237.715 162.951C237.745 164.419 237.775 166.006 237.805 167.713C237.865 169.42 237.895 171.052 237.895 172.609C237.924 174.167 237.924 175.589 237.895 176.877C237.865 178.135 237.79 179.063 237.67 179.662C237.251 181.549 236.472 183.076 235.334 184.244C234.196 185.442 232.699 186.086 230.842 186.176C228.596 186.266 226.814 186.056 225.496 185.547C224.208 185.038 223.205 184.409 222.486 183.66C221.768 182.941 221.229 182.208 220.869 181.459C220.51 180.71 220.135 180.141 219.746 179.752C219.387 179.423 219.027 179.108 218.668 178.809C218.339 178.569 217.994 178.329 217.635 178.09C217.305 177.85 216.976 177.701 216.646 177.641C217.515 177.671 218.294 177.686 218.982 177.686C219.671 177.686 220.255 177.686 220.734 177.686C221.273 177.686 221.753 177.671 222.172 177.641H223.609H227.697C227.098 177.82 226.649 178.015 226.35 178.225C226.05 178.464 225.84 178.704 225.721 178.943C225.601 179.213 225.541 179.482 225.541 179.752C225.661 180.471 226.05 180.995 226.709 181.324C227.368 181.654 228.266 181.848 229.404 181.908C230.512 181.968 231.276 181.938 231.695 181.818C232.115 181.729 232.444 181.549 232.684 181.279C233.163 180.561 233.567 179.632 233.896 178.494C234.136 177.536 234.301 176.293 234.391 174.766C234.51 173.208 234.376 171.307 233.986 169.061C233.028 170.378 231.92 171.367 230.662 172.025C229.404 172.684 228.206 173.163 227.068 173.463C225.721 173.792 224.358 173.957 222.98 173.957C219.357 173.807 216.646 172.969 214.85 171.441C213.053 169.914 212.229 167.863 212.379 165.287C212.469 163.999 212.858 162.712 213.547 161.424C214.266 160.136 215.194 158.983 216.332 157.965C217.5 156.947 218.833 156.138 220.33 155.539C221.827 154.94 223.385 154.686 225.002 154.775C226.23 154.895 227.383 155.12 228.461 155.449C229.389 155.749 230.303 156.168 231.201 156.707C232.13 157.246 232.833 157.995 233.312 158.953ZM219.027 163.445C218.848 164.613 218.923 165.706 219.252 166.725C219.611 167.743 220.105 168.626 220.734 169.375C221.363 170.094 222.067 170.663 222.846 171.082C223.624 171.471 224.358 171.651 225.047 171.621C226.484 171.591 227.727 170.947 228.775 169.689C229.824 168.402 230.452 166.485 230.662 163.939C230.752 162.682 230.587 161.604 230.168 160.705C229.779 159.777 229.285 159.028 228.686 158.459C228.087 157.89 227.458 157.486 226.799 157.246C226.14 157.007 225.616 156.902 225.227 156.932C224.688 156.992 224.089 157.156 223.43 157.426C222.801 157.665 222.187 158.04 221.588 158.549C220.989 159.028 220.45 159.672 219.971 160.48C219.521 161.289 219.207 162.277 219.027 163.445ZM244.588 159.807C244.738 159.627 244.827 159.298 244.857 158.818C244.917 158.309 245.037 157.74 245.217 157.111C245.426 156.482 245.771 155.824 246.25 155.135C246.729 154.446 247.508 153.802 248.586 153.203C249.634 152.604 250.652 152.245 251.641 152.125C252.629 152.005 253.572 152.05 254.471 152.26C255.369 152.469 256.208 152.799 256.986 153.248C257.795 153.697 258.529 154.191 259.188 154.73C259.637 155.09 259.996 155.614 260.266 156.303C260.535 156.962 260.745 157.71 260.895 158.549C261.044 159.387 261.149 160.271 261.209 161.199C261.299 162.098 261.359 162.981 261.389 163.85C261.419 164.688 261.434 165.467 261.434 166.186C261.464 166.874 261.523 167.443 261.613 167.893C261.733 168.551 261.943 169.12 262.242 169.6C262.542 170.049 262.871 170.438 263.23 170.768C263.59 171.067 263.949 171.307 264.309 171.486C264.668 171.666 264.982 171.801 265.252 171.891C265.432 171.98 265.596 172.04 265.746 172.07C266.046 172.19 266.255 172.19 266.375 172.07C266.195 172.49 266.031 172.849 265.881 173.148C265.731 173.448 265.611 173.702 265.521 173.912C265.402 174.152 265.297 174.346 265.207 174.496C265.117 174.676 265.012 174.84 264.893 174.99C264.803 175.14 264.683 175.305 264.533 175.484C264.383 175.664 264.234 175.859 264.084 176.068C263.695 175.919 263.32 175.739 262.961 175.529C262.632 175.32 262.332 175.125 262.062 174.945C261.733 174.736 261.434 174.526 261.164 174.316C260.895 174.107 260.64 173.867 260.4 173.598C260.191 173.358 259.966 173.104 259.727 172.834C259.517 172.564 259.337 172.265 259.188 171.936C259.008 172.325 258.574 172.879 257.885 173.598C257.226 174.316 256.357 174.975 255.279 175.574C254.201 176.143 252.943 176.548 251.506 176.787C250.098 177.027 248.541 176.862 246.834 176.293C246.085 176.053 245.382 175.709 244.723 175.26C244.064 174.781 243.495 174.212 243.016 173.553C242.566 172.894 242.237 172.145 242.027 171.307C241.848 170.438 241.863 169.48 242.072 168.432C242.282 167.383 242.656 166.5 243.195 165.781C243.734 165.062 244.378 164.479 245.127 164.029C245.876 163.58 246.714 163.236 247.643 162.996C248.571 162.757 249.529 162.592 250.518 162.502C251.296 162.472 252.075 162.517 252.854 162.637C253.512 162.757 254.201 162.981 254.92 163.311C255.639 163.61 256.253 164.074 256.762 164.703C256.732 163.116 256.672 161.858 256.582 160.93C256.522 159.971 256.462 159.238 256.402 158.729C256.283 158.13 256.178 157.71 256.088 157.471C255.938 157.261 255.773 157.021 255.594 156.752C255.444 156.482 255.249 156.243 255.01 156.033C254.77 155.794 254.471 155.599 254.111 155.449C253.752 155.299 253.333 155.24 252.854 155.27C252.344 155.299 251.94 155.434 251.641 155.674C251.341 155.913 251.102 156.198 250.922 156.527C250.772 156.827 250.682 157.156 250.652 157.516C250.622 157.875 250.637 158.189 250.697 158.459C250.757 158.639 250.847 158.833 250.967 159.043C251.087 159.223 251.251 159.417 251.461 159.627C251.671 159.837 251.955 160.016 252.314 160.166C251.626 160.256 251.012 160.331 250.473 160.391C249.934 160.421 249.469 160.465 249.08 160.525C248.631 160.585 248.242 160.63 247.912 160.66C247.583 160.69 247.193 160.75 246.744 160.84C246.355 160.9 245.876 160.975 245.307 161.064C244.738 161.154 244.079 161.274 243.33 161.424C243.51 161.214 243.674 161.02 243.824 160.84C243.974 160.63 244.109 160.451 244.229 160.301C244.348 160.121 244.468 159.956 244.588 159.807ZM251.326 165.152C250.787 165.182 250.248 165.317 249.709 165.557C249.17 165.766 248.691 166.081 248.271 166.5C247.852 166.889 247.493 167.354 247.193 167.893C246.924 168.402 246.789 168.971 246.789 169.6C246.789 170.229 246.939 170.783 247.238 171.262C247.568 171.711 247.987 172.085 248.496 172.385C249.035 172.684 249.604 172.864 250.203 172.924C250.832 172.984 251.446 172.924 252.045 172.744C252.614 172.535 253.153 172.205 253.662 171.756C254.171 171.277 254.605 170.768 254.965 170.229C255.324 169.66 255.579 169.105 255.729 168.566C255.878 167.997 255.893 167.533 255.773 167.174C255.534 166.395 254.995 165.856 254.156 165.557C253.318 165.227 252.374 165.092 251.326 165.152ZM291.037 162.053C290.678 161.993 290.229 161.948 289.689 161.918C289.18 161.888 288.686 161.873 288.207 161.873C287.668 161.873 287.099 161.888 286.5 161.918C285.871 161.948 285.242 161.978 284.613 162.008C284.074 162.038 283.46 162.083 282.771 162.143C282.113 162.173 281.469 162.217 280.84 162.277C281.079 162.158 281.289 161.993 281.469 161.783C281.678 161.574 281.858 161.364 282.008 161.154C282.158 160.915 282.292 160.66 282.412 160.391C282.562 159.941 282.547 159.402 282.367 158.773C282.188 158.115 281.858 157.516 281.379 156.977C280.93 156.438 280.346 156.018 279.627 155.719C278.938 155.389 278.174 155.314 277.336 155.494C276.438 155.704 275.629 156.018 274.91 156.438C274.221 156.857 273.637 157.441 273.158 158.189C272.709 158.908 272.38 159.807 272.17 160.885C271.99 161.933 271.945 163.191 272.035 164.658C272.155 166.485 272.454 167.938 272.934 169.016C273.413 170.094 273.997 170.902 274.686 171.441C275.374 171.98 276.123 172.31 276.932 172.43C277.77 172.52 278.594 172.52 279.402 172.43C279.971 172.31 280.495 172.055 280.975 171.666C281.364 171.337 281.723 170.857 282.053 170.229C282.382 169.6 282.532 168.731 282.502 167.623L287.982 167.398C287.354 169.165 286.59 170.573 285.691 171.621C284.793 172.639 283.924 173.433 283.086 174.002C282.098 174.661 281.109 175.11 280.121 175.35C278.893 175.559 277.8 175.649 276.842 175.619C275.883 175.559 275.015 175.41 274.236 175.17C273.458 174.93 272.739 174.631 272.08 174.271C271.421 173.912 270.792 173.523 270.193 173.104C269.804 172.834 269.37 172.385 268.891 171.756C268.411 171.127 267.962 170.378 267.543 169.51C267.124 168.611 266.779 167.623 266.51 166.545C266.24 165.467 266.135 164.359 266.195 163.221C266.255 162.053 266.525 160.885 267.004 159.717C267.483 158.549 268.247 157.426 269.295 156.348C270.882 154.73 272.574 153.682 274.371 153.203C276.198 152.694 277.92 152.559 279.537 152.799C281.154 153.008 282.592 153.473 283.85 154.191C285.107 154.91 285.991 155.689 286.5 156.527C287.009 157.366 287.383 158.01 287.623 158.459C287.893 158.878 288.087 159.208 288.207 159.447C288.357 159.657 288.477 159.822 288.566 159.941C288.686 160.031 288.851 160.166 289.061 160.346C289.21 160.495 289.39 160.66 289.6 160.84C289.779 160.99 289.989 161.169 290.229 161.379C290.468 161.589 290.738 161.813 291.037 162.053ZM288.072 155.045C288.671 155.135 289.21 155.21 289.689 155.27C290.139 155.299 290.543 155.329 290.902 155.359C291.292 155.389 291.666 155.404 292.025 155.404C292.355 155.404 292.774 155.389 293.283 155.359C293.702 155.329 294.242 155.299 294.9 155.27C295.589 155.21 296.398 155.135 297.326 155.045C297.266 155.165 297.146 155.539 296.967 156.168C296.787 156.767 296.607 157.516 296.428 158.414C296.248 159.283 296.083 160.256 295.934 161.334C295.814 162.382 295.754 163.43 295.754 164.479C295.784 165.497 295.919 166.47 296.158 167.398C296.398 168.297 296.787 169.031 297.326 169.6C298.464 170.768 299.467 171.471 300.336 171.711C301.234 171.951 302.013 171.921 302.672 171.621C303.331 171.322 303.87 170.872 304.289 170.273C304.708 169.674 305.008 169.12 305.188 168.611C305.637 167.234 305.906 165.781 305.996 164.254C306.056 162.936 305.951 161.469 305.682 159.852C305.412 158.234 304.768 156.587 303.75 154.91C304.529 154.97 305.202 155.015 305.771 155.045C306.34 155.075 306.835 155.105 307.254 155.135C307.733 155.165 308.152 155.195 308.512 155.225C308.841 155.255 309.23 155.255 309.68 155.225C310.069 155.225 310.533 155.21 311.072 155.18C311.641 155.12 312.27 155.06 312.959 155C313.079 157.935 313.184 160.555 313.273 162.861C313.363 165.137 313.423 167.159 313.453 168.926C313.513 170.663 313.543 172.175 313.543 173.463C313.543 174.721 313.543 175.784 313.543 176.652C313.513 178.719 313.423 180.081 313.273 180.74C313.034 181.669 312.6 182.597 311.971 183.525C311.372 184.454 310.608 185.277 309.68 185.996C308.751 186.745 307.673 187.314 306.445 187.703C305.247 188.122 303.93 188.272 302.492 188.152C301.085 188.033 299.962 187.838 299.123 187.568C298.314 187.329 297.671 187.044 297.191 186.715C296.742 186.385 296.413 186.041 296.203 185.682C296.023 185.322 295.889 184.948 295.799 184.559C295.709 184.199 295.619 183.855 295.529 183.525C295.439 183.196 295.26 182.911 294.99 182.672C294.661 182.402 294.316 182.133 293.957 181.863C293.628 181.624 293.268 181.384 292.879 181.145C292.52 180.905 292.16 180.71 291.801 180.561L301.369 180.021C301.1 180.381 300.905 180.71 300.785 181.01C300.665 181.309 300.59 181.564 300.561 181.773C300.531 182.043 300.546 182.268 300.605 182.447C300.725 182.807 300.935 183.196 301.234 183.615C301.564 184.064 301.983 184.409 302.492 184.648C303.001 184.918 303.6 185.008 304.289 184.918C305.008 184.828 305.816 184.454 306.715 183.795C307.464 183.226 308.092 182.312 308.602 181.055C309.021 179.977 309.35 178.464 309.59 176.518C309.829 174.571 309.785 172.01 309.455 168.836C308.916 170.693 308.182 172.115 307.254 173.104C306.326 174.092 305.397 174.811 304.469 175.26C303.391 175.799 302.268 176.083 301.1 176.113C299.542 176.053 298.21 175.859 297.102 175.529C295.993 175.17 295.08 174.691 294.361 174.092C293.643 173.493 293.074 172.789 292.654 171.98C292.265 171.142 291.98 170.214 291.801 169.195C291.621 168.177 291.531 167.159 291.531 166.141C291.531 165.092 291.531 164.119 291.531 163.221C291.561 162.322 291.576 161.514 291.576 160.795C291.576 160.046 291.501 159.447 291.352 158.998C291.172 158.549 290.932 158.1 290.633 157.65C290.393 157.261 290.064 156.842 289.645 156.393C289.195 155.913 288.671 155.464 288.072 155.045Z" fill="#B5D8F1"/>
<path fill-rule="evenodd" clip-rule="evenodd" d="M145.475 15.3969C145.475 11.4888 146.884 7.74069 149.391 4.97722C151.899 2.21375 155.299 0.661255 158.845 0.661255H185.585C189.13 0.661255 192.531 2.21375 195.038 4.97722C197.546 7.74069 198.954 11.4888 198.954 15.3969V37.5003H219.009C222.555 37.5003 225.955 39.0528 228.463 41.8163C230.97 44.5798 232.378 48.3278 232.378 52.236V81.7072C232.378 85.6154 230.97 89.3634 228.463 92.1269C225.955 94.8904 222.555 96.4429 219.009 96.4429H198.954V118.546C198.954 122.454 197.546 126.202 195.038 128.966C192.531 131.729 189.13 133.282 185.585 133.282H158.845C155.299 133.282 151.899 131.729 149.391 128.966C146.884 126.202 145.475 122.454 145.475 118.546V96.4429H125.421C121.875 96.4429 118.474 94.8904 115.967 92.1269C113.46 89.3634 112.051 85.6154 112.051 81.7072V52.236C112.051 48.3278 113.46 44.5798 115.967 41.8163C118.474 39.0528 121.875 37.5003 125.421 37.5003H145.475V15.3969ZM185.585 15.3969H158.845V52.236H125.421V81.7072H158.845V118.546H185.585V81.7072H219.009V52.236H185.585V15.3969Z" fill="#B5D8F1"/>
</svg>
